<?xml version="1.0" standalone="no"?>
<!DOCTYPE svg PUBLIC "-//W3C//DTD SVG 20010904//EN"
 "http://www.w3.org/TR/2001/REC-SVG-20010904/DTD/svg10.dtd">
<svg version="1.0" xmlns="http://www.w3.org/2000/svg"
 width="231.000000pt" height="231.000000pt" viewBox="0 0 231.000000 231.000000"
 preserveAspectRatio="xMidYMid meet">
<metadata>
Created by potrace 1.11, written by Peter Selinger 2001-2013
</metadata>
<g transform="translate(0.000000,231.000000) scale(0.100000,-0.100000)"
fill="#000000" stroke="none">
<path d="M797 2144 c-1 -1 -28 -4 -60 -8 -236 -25 -458 -207 -536 -442 -27
-83 -32 -115 -33 -214 0 -194 88 -382 237 -500 92 -73 93 -74 93 -119 0 -23 3
-49 6 -59 3 -9 8 -32 11 -50 14 -83 83 -211 157 -293 94 -102 234 -177 383
-204 74 -13 171 -7 290 20 6 1 23 7 38 13 16 7 31 12 33 12 3 0 36 18 72 39
129 76 228 193 281 330 26 68 47 173 44 224 0 10 24 35 61 61 63 46 88 71 143
142 32 41 91 158 98 195 2 10 7 23 10 29 8 13 18 104 18 165 -1 182 -65 335
-194 464 -195 196 -481 248 -738 135 l-55 -25 -56 25 c-68 31 -173 56 -246 59
-30 2 -56 2 -57 1z"/>
</g>
</svg>
